<mxfile host="app.diagrams.net" agent="Mozilla/5.0 (Windows NT 10.0; Win64; x64) AppleWebKit/537.36 (KHTML, like Gecko) Chrome/136.0.0.0 Safari/537.36" version="27.0.1">
  <diagram name="Page-1" id="yghveTz_ZI2WeUzNJZ3u">
    <mxGraphModel dx="1722" dy="953" grid="1" gridSize="10" guides="1" tooltips="1" connect="1" arrows="0" fold="1" page="1" pageScale="1" pageWidth="850" pageHeight="1100" background="light-dark(#FFFFFF,#1A1A1A)" math="0" shadow="0">
      <root>
        <mxCell id="0" />
        <mxCell id="1" parent="0" />
        <mxCell id="DK7Z-vyXW3vnFTn4phnp-17" style="edgeStyle=orthogonalEdgeStyle;rounded=1;orthogonalLoop=1;jettySize=auto;html=1;entryX=0.5;entryY=0;entryDx=0;entryDy=0;labelBackgroundColor=none;fontColor=default;" edge="1" parent="1" source="k6WkVf92p5_3MgV4niu0-2" target="k6WkVf92p5_3MgV4niu0-16">
          <mxGeometry relative="1" as="geometry">
            <mxPoint x="400" y="490" as="targetPoint" />
          </mxGeometry>
        </mxCell>
        <mxCell id="k6WkVf92p5_3MgV4niu0-2" value="User Interface" style="swimlane;fontStyle=0;childLayout=stackLayout;horizontal=1;startSize=26;horizontalStack=0;resizeParent=1;resizeParentMax=0;resizeLast=0;collapsible=1;marginBottom=0;html=1;fillColor=none;rounded=1;labelBackgroundColor=none;" parent="1" vertex="1">
          <mxGeometry x="250" y="180" width="140" height="136" as="geometry">
            <mxRectangle x="200" y="50" width="120" height="30" as="alternateBounds" />
          </mxGeometry>
        </mxCell>
        <mxCell id="k6WkVf92p5_3MgV4niu0-3" value="Fast API docs" style="text;strokeColor=none;fillColor=none;align=left;verticalAlign=top;spacingLeft=4;spacingRight=4;overflow=hidden;rotatable=0;points=[[0,0.5],[1,0.5]];portConstraint=eastwest;whiteSpace=wrap;html=1;rounded=1;labelBackgroundColor=none;" parent="k6WkVf92p5_3MgV4niu0-2" vertex="1">
          <mxGeometry y="26" width="140" height="26" as="geometry" />
        </mxCell>
        <mxCell id="k6WkVf92p5_3MgV4niu0-4" value="Browser" style="text;strokeColor=none;fillColor=none;align=left;verticalAlign=top;spacingLeft=4;spacingRight=4;overflow=hidden;rotatable=0;points=[[0,0.5],[1,0.5]];portConstraint=eastwest;whiteSpace=wrap;html=1;rounded=1;labelBackgroundColor=none;" parent="k6WkVf92p5_3MgV4niu0-2" vertex="1">
          <mxGeometry y="52" width="140" height="26" as="geometry" />
        </mxCell>
        <mxCell id="k6WkVf92p5_3MgV4niu0-5" value="Jupyter Notebook" style="text;strokeColor=none;fillColor=none;align=left;verticalAlign=top;spacingLeft=4;spacingRight=4;overflow=hidden;rotatable=0;points=[[0,0.5],[1,0.5]];portConstraint=eastwest;whiteSpace=wrap;html=1;rounded=1;labelBackgroundColor=none;" parent="k6WkVf92p5_3MgV4niu0-2" vertex="1">
          <mxGeometry y="78" width="140" height="32" as="geometry" />
        </mxCell>
        <mxCell id="k6WkVf92p5_3MgV4niu0-10" value="etc." style="text;strokeColor=none;fillColor=none;align=left;verticalAlign=top;spacingLeft=4;spacingRight=4;overflow=hidden;rotatable=0;points=[[0,0.5],[1,0.5]];portConstraint=eastwest;whiteSpace=wrap;html=1;rounded=1;labelBackgroundColor=none;" parent="k6WkVf92p5_3MgV4niu0-2" vertex="1">
          <mxGeometry y="110" width="140" height="26" as="geometry" />
        </mxCell>
        <mxCell id="DK7Z-vyXW3vnFTn4phnp-20" style="edgeStyle=orthogonalEdgeStyle;rounded=1;orthogonalLoop=1;jettySize=auto;html=1;exitX=0.5;exitY=0;exitDx=0;exitDy=0;entryX=1;entryY=0.5;entryDx=0;entryDy=0;labelBackgroundColor=none;fontColor=default;" edge="1" parent="1" source="k6WkVf92p5_3MgV4niu0-11" target="k6WkVf92p5_3MgV4niu0-19">
          <mxGeometry relative="1" as="geometry" />
        </mxCell>
        <mxCell id="k6WkVf92p5_3MgV4niu0-11" value="PostgreSQL Database" style="swimlane;fontStyle=0;childLayout=stackLayout;horizontal=1;startSize=26;fillColor=none;horizontalStack=0;resizeParent=1;resizeParentMax=0;resizeLast=0;collapsible=1;marginBottom=0;html=1;rounded=1;labelBackgroundColor=none;" parent="1" vertex="1">
          <mxGeometry x="340" y="780" width="140" height="130" as="geometry" />
        </mxCell>
        <mxCell id="k6WkVf92p5_3MgV4niu0-12" value="PostGIS" style="text;strokeColor=none;fillColor=none;align=left;verticalAlign=top;spacingLeft=4;spacingRight=4;overflow=hidden;rotatable=0;points=[[0,0.5],[1,0.5]];portConstraint=eastwest;whiteSpace=wrap;html=1;rounded=1;labelBackgroundColor=none;" parent="k6WkVf92p5_3MgV4niu0-11" vertex="1">
          <mxGeometry y="26" width="140" height="26" as="geometry" />
        </mxCell>
        <mxCell id="k6WkVf92p5_3MgV4niu0-13" value="Link" style="text;strokeColor=none;fillColor=none;align=left;verticalAlign=top;spacingLeft=4;spacingRight=4;overflow=hidden;rotatable=0;points=[[0,0.5],[1,0.5]];portConstraint=eastwest;whiteSpace=wrap;html=1;rounded=1;labelBackgroundColor=none;" parent="k6WkVf92p5_3MgV4niu0-11" vertex="1">
          <mxGeometry y="52" width="140" height="26" as="geometry" />
        </mxCell>
        <mxCell id="k6WkVf92p5_3MgV4niu0-15" value="Geometry Column" style="text;strokeColor=none;fillColor=none;align=left;verticalAlign=top;spacingLeft=4;spacingRight=4;overflow=hidden;rotatable=0;points=[[0,0.5],[1,0.5]];portConstraint=eastwest;whiteSpace=wrap;html=1;rounded=1;labelBackgroundColor=none;" parent="k6WkVf92p5_3MgV4niu0-11" vertex="1">
          <mxGeometry y="78" width="140" height="26" as="geometry" />
        </mxCell>
        <mxCell id="k6WkVf92p5_3MgV4niu0-14" value="SpeedRecord" style="text;strokeColor=none;fillColor=none;align=left;verticalAlign=top;spacingLeft=4;spacingRight=4;overflow=hidden;rotatable=0;points=[[0,0.5],[1,0.5]];portConstraint=eastwest;whiteSpace=wrap;html=1;rounded=1;labelBackgroundColor=none;" parent="k6WkVf92p5_3MgV4niu0-11" vertex="1">
          <mxGeometry y="104" width="140" height="26" as="geometry" />
        </mxCell>
        <mxCell id="k6WkVf92p5_3MgV4niu0-16" value="FastAPI" style="swimlane;fontStyle=0;childLayout=stackLayout;horizontal=1;startSize=26;fillColor=none;horizontalStack=0;resizeParent=1;resizeParentMax=0;resizeLast=0;collapsible=1;marginBottom=0;html=1;movable=1;resizable=1;rotatable=1;deletable=1;editable=1;locked=0;connectable=1;rounded=1;labelBackgroundColor=none;" parent="1" vertex="1">
          <mxGeometry x="250" y="490" width="140" height="104" as="geometry" />
        </mxCell>
        <mxCell id="k6WkVf92p5_3MgV4niu0-17" value="main.py" style="text;strokeColor=none;fillColor=none;align=left;verticalAlign=top;spacingLeft=4;spacingRight=4;overflow=hidden;rotatable=1;points=[[0,0.5],[1,0.5]];portConstraint=eastwest;whiteSpace=wrap;html=1;movable=1;resizable=1;deletable=1;editable=1;locked=0;connectable=1;rounded=1;labelBackgroundColor=none;" parent="k6WkVf92p5_3MgV4niu0-16" vertex="1">
          <mxGeometry y="26" width="140" height="26" as="geometry" />
        </mxCell>
        <mxCell id="k6WkVf92p5_3MgV4niu0-18" value="endpoints" style="text;strokeColor=none;fillColor=none;align=left;verticalAlign=top;spacingLeft=4;spacingRight=4;overflow=hidden;rotatable=1;points=[[0,0.5],[1,0.5]];portConstraint=eastwest;whiteSpace=wrap;html=1;movable=1;resizable=1;deletable=1;editable=1;locked=0;connectable=1;rounded=1;labelBackgroundColor=none;" parent="k6WkVf92p5_3MgV4niu0-16" vertex="1">
          <mxGeometry y="52" width="140" height="26" as="geometry" />
        </mxCell>
        <mxCell id="k6WkVf92p5_3MgV4niu0-19" value="queries DB" style="text;strokeColor=none;fillColor=none;align=left;verticalAlign=top;spacingLeft=4;spacingRight=4;overflow=hidden;rotatable=1;points=[[0,0.5],[1,0.5]];portConstraint=eastwest;whiteSpace=wrap;html=1;movable=1;resizable=1;deletable=1;editable=1;locked=0;connectable=1;rounded=1;labelBackgroundColor=none;" parent="k6WkVf92p5_3MgV4niu0-16" vertex="1">
          <mxGeometry y="78" width="140" height="26" as="geometry" />
        </mxCell>
        <mxCell id="DK7Z-vyXW3vnFTn4phnp-21" style="edgeStyle=orthogonalEdgeStyle;rounded=1;orthogonalLoop=1;jettySize=auto;html=1;exitX=0;exitY=0.25;exitDx=0;exitDy=0;entryX=1;entryY=0.5;entryDx=0;entryDy=0;labelBackgroundColor=none;fontColor=default;" edge="1" parent="1" source="k6WkVf92p5_3MgV4niu0-20" target="k6WkVf92p5_3MgV4niu0-18">
          <mxGeometry relative="1" as="geometry" />
        </mxCell>
        <mxCell id="k6WkVf92p5_3MgV4niu0-20" value="&lt;div data-darkreader-inline-bgcolor=&quot;&quot; data-darkreader-inline-color=&quot;&quot; style=&quot;font-family: Consolas, &amp;quot;Courier New&amp;quot;, monospace; font-size: 14px; line-height: 19px; white-space-collapse: preserve; --darkreader-inline-color: var(--darkreader-text-3e3e3e, #c1bbb3); --darkreader-inline-bgcolor: var(--darkreader-background-d2d2d2, #313638);&quot;&gt;&lt;div data-darkreader-inline-bgcolor=&quot;&quot; data-darkreader-inline-color=&quot;&quot; style=&quot;line-height: 19px; --darkreader-inline-color: var(--darkreader-text-cccccc, #c8c3bc); --darkreader-inline-bgcolor: var(--darkreader-background-1f1f1f, #17191a);&quot;&gt;&lt;span data-darkreader-inline-color=&quot;&quot; style=&quot;--darkreader-inline-color: var(--darkreader-text-ce9178, #cf947b); background-color: light-dark(rgb(31, 31, 31), rgb(26, 26, 26));&quot;&gt;&lt;font style=&quot;color: light-dark(rgb(206, 145, 120), rgb(255, 181, 112));&quot;&gt;/aggregates/&lt;/font&gt;&lt;/span&gt;&lt;/div&gt;&lt;/div&gt;" style="swimlane;fontStyle=0;childLayout=stackLayout;horizontal=1;startSize=26;fillColor=none;horizontalStack=0;resizeParent=1;resizeParentMax=0;resizeLast=0;collapsible=1;marginBottom=0;html=1;movable=1;resizable=1;rotatable=1;deletable=1;editable=1;locked=0;connectable=1;rounded=1;labelBackgroundColor=none;" parent="1" vertex="1">
          <mxGeometry x="550" y="410" width="230" height="70" as="geometry" />
        </mxCell>
        <mxCell id="k6WkVf92p5_3MgV4niu0-21" value="returns list of dictionaries, including json formatted geometry data." style="text;strokeColor=none;fillColor=none;align=left;verticalAlign=top;spacingLeft=4;spacingRight=4;overflow=hidden;rotatable=1;points=[[0,0.5],[1,0.5]];portConstraint=eastwest;whiteSpace=wrap;html=1;movable=1;resizable=1;deletable=1;editable=1;locked=0;connectable=1;rounded=1;labelBackgroundColor=none;" parent="k6WkVf92p5_3MgV4niu0-20" vertex="1">
          <mxGeometry y="26" width="230" height="44" as="geometry" />
        </mxCell>
        <mxCell id="DK7Z-vyXW3vnFTn4phnp-22" style="edgeStyle=orthogonalEdgeStyle;rounded=1;orthogonalLoop=1;jettySize=auto;html=1;exitX=0;exitY=0.25;exitDx=0;exitDy=0;entryX=1;entryY=0.5;entryDx=0;entryDy=0;labelBackgroundColor=none;fontColor=default;" edge="1" parent="1" source="WqStAZTgpM98kzrqg9aF-1" target="k6WkVf92p5_3MgV4niu0-18">
          <mxGeometry relative="1" as="geometry" />
        </mxCell>
        <mxCell id="WqStAZTgpM98kzrqg9aF-1" value="&lt;div data-darkreader-inline-bgcolor=&quot;&quot; data-darkreader-inline-color=&quot;&quot; style=&quot;font-family: Consolas, &amp;quot;Courier New&amp;quot;, monospace; font-size: 14px; line-height: 19px; white-space-collapse: preserve; --darkreader-inline-color: var(--darkreader-text-3e3e3e, #c1bbb3); --darkreader-inline-bgcolor: var(--darkreader-background-d2d2d2, #313638);&quot;&gt;&lt;div data-darkreader-inline-bgcolor=&quot;&quot; data-darkreader-inline-color=&quot;&quot; style=&quot;line-height: 19px; --darkreader-inline-color: var(--darkreader-text-3e3e3e, #c1bbb3); --darkreader-inline-bgcolor: var(--darkreader-background-d2d2d2, #313638);&quot;&gt;&lt;div data-darkreader-inline-bgcolor=&quot;&quot; data-darkreader-inline-color=&quot;&quot; style=&quot;line-height: 19px; --darkreader-inline-color: var(--darkreader-text-cccccc, #c8c3bc); --darkreader-inline-bgcolor: var(--darkreader-background-1f1f1f, #17191a);&quot;&gt;&lt;font style=&quot;background-color: light-dark(rgb(31, 31, 31), rgb(26, 26, 26));&quot;&gt;&lt;span data-darkreader-inline-color=&quot;&quot; style=&quot;--darkreader-inline-color: var(--darkreader-text-ce9178, #cf947b);&quot;&gt;&lt;font style=&quot;color: light-dark(rgb(206, 145, 120), rgb(255, 181, 112));&quot;&gt;/aggregates/&lt;/font&gt;&lt;/span&gt;&lt;span data-darkreader-inline-color=&quot;&quot; style=&quot;--darkreader-inline-color: var(--darkreader-text-569cd6, #60a4d8);&quot;&gt;&lt;font style=&quot;color: light-dark(rgb(86, 156, 214), rgb(126, 166, 224));&quot;&gt;{link_id}&lt;/font&gt;&lt;/span&gt;&lt;span data-darkreader-inline-color=&quot;&quot; style=&quot;--darkreader-inline-color: var(--darkreader-text-ce9178, #cf947b);&quot;&gt;&lt;font style=&quot;color: light-dark(rgb(206, 145, 120), rgb(255, 181, 112));&quot;&gt;/&lt;/font&gt;&lt;/span&gt;&lt;/font&gt;&lt;/div&gt;&lt;/div&gt;&lt;/div&gt;" style="swimlane;fontStyle=0;childLayout=stackLayout;horizontal=1;startSize=26;fillColor=none;horizontalStack=0;resizeParent=1;resizeParentMax=0;resizeLast=0;collapsible=1;marginBottom=0;html=1;movable=1;resizable=1;rotatable=1;deletable=1;editable=1;locked=0;connectable=1;rounded=1;labelBackgroundColor=none;" parent="1" vertex="1">
          <mxGeometry x="550" y="490" width="230" height="60" as="geometry" />
        </mxCell>
        <mxCell id="WqStAZTgpM98kzrqg9aF-2" value="returns list of a single dictionary" style="text;strokeColor=none;fillColor=none;align=left;verticalAlign=top;spacingLeft=4;spacingRight=4;overflow=hidden;rotatable=1;points=[[0,0.5],[1,0.5]];portConstraint=eastwest;whiteSpace=wrap;html=1;movable=1;resizable=1;deletable=1;editable=1;locked=0;connectable=1;rounded=1;labelBackgroundColor=none;" parent="WqStAZTgpM98kzrqg9aF-1" vertex="1">
          <mxGeometry y="26" width="230" height="34" as="geometry" />
        </mxCell>
        <mxCell id="DK7Z-vyXW3vnFTn4phnp-23" style="edgeStyle=orthogonalEdgeStyle;rounded=1;orthogonalLoop=1;jettySize=auto;html=1;exitX=0;exitY=0.25;exitDx=0;exitDy=0;entryX=1;entryY=0.5;entryDx=0;entryDy=0;labelBackgroundColor=none;fontColor=default;" edge="1" parent="1" source="WqStAZTgpM98kzrqg9aF-3" target="k6WkVf92p5_3MgV4niu0-18">
          <mxGeometry relative="1" as="geometry" />
        </mxCell>
        <mxCell id="WqStAZTgpM98kzrqg9aF-3" value="&lt;div data-darkreader-inline-bgcolor=&quot;&quot; data-darkreader-inline-color=&quot;&quot; style=&quot;font-family: Consolas, &amp;quot;Courier New&amp;quot;, monospace; font-size: 14px; line-height: 19px; white-space-collapse: preserve; --darkreader-inline-color: var(--darkreader-text-3e3e3e, #c1bbb3); --darkreader-inline-bgcolor: var(--darkreader-background-d2d2d2, #313638);&quot;&gt;&lt;div data-darkreader-inline-bgcolor=&quot;&quot; data-darkreader-inline-color=&quot;&quot; style=&quot;line-height: 19px; --darkreader-inline-color: var(--darkreader-text-3e3e3e, #c1bbb3); --darkreader-inline-bgcolor: var(--darkreader-background-d2d2d2, #313638);&quot;&gt;&lt;div data-darkreader-inline-bgcolor=&quot;&quot; data-darkreader-inline-color=&quot;&quot; style=&quot;line-height: 19px; --darkreader-inline-color: var(--darkreader-text-cccccc, #c8c3bc); --darkreader-inline-bgcolor: var(--darkreader-background-1f1f1f, #17191a);&quot;&gt;&lt;span data-darkreader-inline-color=&quot;&quot; style=&quot;--darkreader-inline-color: var(--darkreader-text-ce9178, #cf947b); background-color: light-dark(rgb(31, 31, 31), rgb(26, 26, 26));&quot;&gt;&lt;font style=&quot;color: light-dark(rgb(206, 145, 120), rgb(255, 181, 112));&quot;&gt;/patterns/slow_links/&lt;/font&gt;&lt;/span&gt;&lt;/div&gt;&lt;/div&gt;&lt;/div&gt;" style="swimlane;fontStyle=0;childLayout=stackLayout;horizontal=1;startSize=26;fillColor=none;horizontalStack=0;resizeParent=1;resizeParentMax=0;resizeLast=0;collapsible=1;marginBottom=0;html=1;movable=1;resizable=1;rotatable=1;deletable=1;editable=1;locked=0;connectable=1;rounded=1;labelBackgroundColor=none;" parent="1" vertex="1">
          <mxGeometry x="550" y="560" width="230" height="60" as="geometry" />
        </mxCell>
        <mxCell id="WqStAZTgpM98kzrqg9aF-4" value="returns list of dictionaries" style="text;strokeColor=none;fillColor=none;align=left;verticalAlign=top;spacingLeft=4;spacingRight=4;overflow=hidden;rotatable=1;points=[[0,0.5],[1,0.5]];portConstraint=eastwest;whiteSpace=wrap;html=1;movable=1;resizable=1;deletable=1;editable=1;locked=0;connectable=1;rounded=1;labelBackgroundColor=none;" parent="WqStAZTgpM98kzrqg9aF-3" vertex="1">
          <mxGeometry y="26" width="230" height="34" as="geometry" />
        </mxCell>
        <mxCell id="DK7Z-vyXW3vnFTn4phnp-24" style="edgeStyle=orthogonalEdgeStyle;rounded=1;orthogonalLoop=1;jettySize=auto;html=1;exitX=0;exitY=0.25;exitDx=0;exitDy=0;entryX=1;entryY=0.5;entryDx=0;entryDy=0;labelBackgroundColor=none;fontColor=default;" edge="1" parent="1" source="WqStAZTgpM98kzrqg9aF-5" target="k6WkVf92p5_3MgV4niu0-18">
          <mxGeometry relative="1" as="geometry" />
        </mxCell>
        <mxCell id="WqStAZTgpM98kzrqg9aF-5" value="&lt;div data-darkreader-inline-bgcolor=&quot;&quot; data-darkreader-inline-color=&quot;&quot; style=&quot;font-family: Consolas, &amp;quot;Courier New&amp;quot;, monospace; font-size: 14px; line-height: 19px; white-space-collapse: preserve; --darkreader-inline-color: var(--darkreader-text-3e3e3e, #c1bbb3); --darkreader-inline-bgcolor: var(--darkreader-background-d2d2d2, #313638);&quot;&gt;&lt;div data-darkreader-inline-bgcolor=&quot;&quot; data-darkreader-inline-color=&quot;&quot; style=&quot;line-height: 19px; --darkreader-inline-color: var(--darkreader-text-3e3e3e, #c1bbb3); --darkreader-inline-bgcolor: var(--darkreader-background-d2d2d2, #313638);&quot;&gt;&lt;div data-darkreader-inline-bgcolor=&quot;&quot; data-darkreader-inline-color=&quot;&quot; style=&quot;line-height: 19px; --darkreader-inline-color: var(--darkreader-text-3e3e3e, #c1bbb3); --darkreader-inline-bgcolor: var(--darkreader-background-d2d2d2, #313638);&quot;&gt;&lt;div data-darkreader-inline-bgcolor=&quot;&quot; data-darkreader-inline-color=&quot;&quot; style=&quot;line-height: 19px; --darkreader-inline-color: var(--darkreader-text-cccccc, #c8c3bc); --darkreader-inline-bgcolor: var(--darkreader-background-1f1f1f, #17191a);&quot;&gt;&lt;span data-darkreader-inline-color=&quot;&quot; style=&quot;--darkreader-inline-color: var(--darkreader-text-ce9178, #cf947b); background-color: light-dark(rgb(31, 31, 31), rgb(26, 26, 26));&quot;&gt;&lt;font style=&quot;color: light-dark(rgb(206, 145, 120), rgb(255, 181, 112));&quot;&gt;/aggregates/spatial_filter/&lt;/font&gt;&lt;/span&gt;&lt;/div&gt;&lt;/div&gt;&lt;/div&gt;&lt;/div&gt;" style="swimlane;fontStyle=0;childLayout=stackLayout;horizontal=1;startSize=26;fillColor=none;horizontalStack=0;resizeParent=1;resizeParentMax=0;resizeLast=0;collapsible=1;marginBottom=0;html=1;movable=1;resizable=1;rotatable=1;deletable=1;editable=1;locked=0;connectable=1;rounded=1;labelBackgroundColor=none;" parent="1" vertex="1">
          <mxGeometry x="550" y="630" width="230" height="60" as="geometry" />
        </mxCell>
        <mxCell id="WqStAZTgpM98kzrqg9aF-6" value="returns list of dictionaries" style="text;strokeColor=none;fillColor=none;align=left;verticalAlign=top;spacingLeft=4;spacingRight=4;overflow=hidden;rotatable=1;points=[[0,0.5],[1,0.5]];portConstraint=eastwest;whiteSpace=wrap;html=1;movable=1;resizable=1;deletable=1;editable=1;locked=0;connectable=1;rounded=1;labelBackgroundColor=none;" parent="WqStAZTgpM98kzrqg9aF-5" vertex="1">
          <mxGeometry y="26" width="230" height="34" as="geometry" />
        </mxCell>
        <mxCell id="DK7Z-vyXW3vnFTn4phnp-3" style="edgeStyle=orthogonalEdgeStyle;rounded=1;orthogonalLoop=1;jettySize=auto;html=1;exitX=1;exitY=0.5;exitDx=0;exitDy=0;entryX=0;entryY=0.25;entryDx=0;entryDy=0;movable=1;resizable=1;rotatable=1;deletable=1;editable=1;locked=0;connectable=1;labelBackgroundColor=none;fontColor=default;" edge="1" parent="1" source="k6WkVf92p5_3MgV4niu0-18" target="k6WkVf92p5_3MgV4niu0-20">
          <mxGeometry relative="1" as="geometry" />
        </mxCell>
        <mxCell id="DK7Z-vyXW3vnFTn4phnp-4" style="edgeStyle=orthogonalEdgeStyle;rounded=1;orthogonalLoop=1;jettySize=auto;html=1;exitX=1;exitY=0.5;exitDx=0;exitDy=0;entryX=0;entryY=0.25;entryDx=0;entryDy=0;verticalAlign=middle;movable=1;resizable=1;rotatable=1;deletable=1;editable=1;locked=0;connectable=1;labelBackgroundColor=none;fontColor=default;" edge="1" parent="1" source="k6WkVf92p5_3MgV4niu0-18" target="WqStAZTgpM98kzrqg9aF-1">
          <mxGeometry relative="1" as="geometry" />
        </mxCell>
        <mxCell id="DK7Z-vyXW3vnFTn4phnp-6" style="edgeStyle=orthogonalEdgeStyle;rounded=1;orthogonalLoop=1;jettySize=auto;html=1;entryX=0;entryY=0.25;entryDx=0;entryDy=0;movable=1;resizable=1;rotatable=1;deletable=1;editable=1;locked=0;connectable=1;labelBackgroundColor=none;fontColor=default;" edge="1" parent="1" source="k6WkVf92p5_3MgV4niu0-18" target="WqStAZTgpM98kzrqg9aF-5">
          <mxGeometry relative="1" as="geometry" />
        </mxCell>
        <mxCell id="DK7Z-vyXW3vnFTn4phnp-7" value="Data Ingestion" style="swimlane;fontStyle=0;childLayout=stackLayout;horizontal=1;startSize=30;horizontalStack=0;resizeParent=1;resizeParentMax=0;resizeLast=0;collapsible=1;marginBottom=0;whiteSpace=wrap;html=1;rounded=1;labelBackgroundColor=none;" vertex="1" parent="1">
          <mxGeometry x="640" y="780" width="140" height="140" as="geometry" />
        </mxCell>
        <mxCell id="DK7Z-vyXW3vnFTn4phnp-8" value="db_data_dump.py" style="text;strokeColor=none;fillColor=none;align=left;verticalAlign=middle;spacingLeft=4;spacingRight=4;overflow=hidden;points=[[0,0.5],[1,0.5]];portConstraint=eastwest;rotatable=0;whiteSpace=wrap;html=1;rounded=1;labelBackgroundColor=none;" vertex="1" parent="DK7Z-vyXW3vnFTn4phnp-7">
          <mxGeometry y="30" width="140" height="30" as="geometry" />
        </mxCell>
        <mxCell id="DK7Z-vyXW3vnFTn4phnp-9" value="Execute&lt;br&gt;&lt;div style=&quot;font-family: Consolas, &amp;quot;Courier New&amp;quot;, monospace; font-size: 14px; line-height: 19px; white-space: pre;&quot;&gt;&lt;span style=&quot;background-color: light-dark(rgb(31, 31, 31), rgb(26, 26, 26));&quot;&gt;&lt;font style=&quot;color: light-dark(rgb(206, 145, 120), rgb(255, 181, 112));&quot;&gt;SET geometry&lt;/font&gt;&lt;/span&gt;&lt;/div&gt;SQL query" style="text;strokeColor=none;fillColor=none;align=left;verticalAlign=middle;spacingLeft=4;spacingRight=4;overflow=hidden;points=[[0,0.5],[1,0.5]];portConstraint=eastwest;rotatable=0;whiteSpace=wrap;html=1;rounded=1;labelBackgroundColor=none;" vertex="1" parent="DK7Z-vyXW3vnFTn4phnp-7">
          <mxGeometry y="60" width="140" height="50" as="geometry" />
        </mxCell>
        <mxCell id="DK7Z-vyXW3vnFTn4phnp-10" value="&lt;div style=&quot;font-family: Consolas, &amp;quot;Courier New&amp;quot;, monospace; font-size: 14px; line-height: 19px; white-space: pre;&quot;&gt;&lt;span style=&quot;background-color: light-dark(rgb(31, 31, 31), rgb(26, 26, 26));&quot;&gt;&lt;span&gt;&lt;font style=&quot;color: light-dark(rgb(78, 201, 176), rgb(151, 208, 119));&quot;&gt;pd&lt;/font&gt;&lt;/span&gt;&lt;font style=&quot;color: light-dark(rgb(206, 145, 120), rgb(255, 181, 112));&quot;&gt;.&lt;span&gt;read_parquet&lt;/span&gt;&lt;/font&gt;&lt;/span&gt;&lt;/div&gt;" style="text;strokeColor=none;fillColor=none;align=left;verticalAlign=middle;spacingLeft=4;spacingRight=4;overflow=hidden;points=[[0,0.5],[1,0.5]];portConstraint=eastwest;rotatable=0;whiteSpace=wrap;html=1;rounded=1;labelBackgroundColor=none;" vertex="1" parent="DK7Z-vyXW3vnFTn4phnp-7">
          <mxGeometry y="110" width="140" height="30" as="geometry" />
        </mxCell>
        <mxCell id="DK7Z-vyXW3vnFTn4phnp-11" style="edgeStyle=orthogonalEdgeStyle;rounded=1;orthogonalLoop=1;jettySize=auto;html=1;exitX=1;exitY=0.5;exitDx=0;exitDy=0;entryX=0;entryY=0.25;entryDx=0;entryDy=0;movable=1;resizable=1;rotatable=1;deletable=1;editable=1;locked=0;connectable=1;labelBackgroundColor=none;fontColor=default;" edge="1" parent="1" source="k6WkVf92p5_3MgV4niu0-18" target="WqStAZTgpM98kzrqg9aF-3">
          <mxGeometry relative="1" as="geometry" />
        </mxCell>
        <mxCell id="DK7Z-vyXW3vnFTn4phnp-19" style="edgeStyle=orthogonalEdgeStyle;rounded=1;orthogonalLoop=1;jettySize=auto;html=1;exitX=1;exitY=0.5;exitDx=0;exitDy=0;entryX=0.5;entryY=0;entryDx=0;entryDy=0;labelBackgroundColor=none;fontColor=default;" edge="1" parent="1" source="k6WkVf92p5_3MgV4niu0-19" target="k6WkVf92p5_3MgV4niu0-11">
          <mxGeometry relative="1" as="geometry" />
        </mxCell>
        <mxCell id="DK7Z-vyXW3vnFTn4phnp-29" value="Jupyter Notebook" style="swimlane;fontStyle=0;childLayout=stackLayout;horizontal=1;startSize=30;horizontalStack=0;resizeParent=1;resizeParentMax=0;resizeLast=0;collapsible=1;marginBottom=0;whiteSpace=wrap;html=1;rounded=1;labelBackgroundColor=none;" vertex="1" parent="1">
          <mxGeometry x="640" y="230" width="140" height="90" as="geometry" />
        </mxCell>
        <mxCell id="DK7Z-vyXW3vnFTn4phnp-30" value="Mapbox" style="text;strokeColor=none;fillColor=none;align=left;verticalAlign=middle;spacingLeft=4;spacingRight=4;overflow=hidden;points=[[0,0.5],[1,0.5]];portConstraint=eastwest;rotatable=0;whiteSpace=wrap;html=1;rounded=1;labelBackgroundColor=none;" vertex="1" parent="DK7Z-vyXW3vnFTn4phnp-29">
          <mxGeometry y="30" width="140" height="30" as="geometry" />
        </mxCell>
        <mxCell id="DK7Z-vyXW3vnFTn4phnp-31" value="Fetch JSON from api" style="text;strokeColor=none;fillColor=none;align=left;verticalAlign=middle;spacingLeft=4;spacingRight=4;overflow=hidden;points=[[0,0.5],[1,0.5]];portConstraint=eastwest;rotatable=0;whiteSpace=wrap;html=1;rounded=1;labelBackgroundColor=none;" vertex="1" parent="DK7Z-vyXW3vnFTn4phnp-29">
          <mxGeometry y="60" width="140" height="30" as="geometry" />
        </mxCell>
        <mxCell id="DK7Z-vyXW3vnFTn4phnp-33" style="edgeStyle=orthogonalEdgeStyle;rounded=1;orthogonalLoop=1;jettySize=auto;html=1;exitX=0;exitY=0.5;exitDx=0;exitDy=0;entryX=1;entryY=0.5;entryDx=0;entryDy=0;labelBackgroundColor=none;fontColor=default;" edge="1" parent="1" source="DK7Z-vyXW3vnFTn4phnp-30" target="k6WkVf92p5_3MgV4niu0-5">
          <mxGeometry relative="1" as="geometry" />
        </mxCell>
        <mxCell id="DK7Z-vyXW3vnFTn4phnp-37" style="edgeStyle=orthogonalEdgeStyle;rounded=1;orthogonalLoop=1;jettySize=auto;html=1;exitX=-0.002;exitY=0.098;exitDx=0;exitDy=0;entryX=0.992;entryY=0.099;entryDx=0;entryDy=0;entryPerimeter=0;exitPerimeter=0;labelBackgroundColor=none;fontColor=default;" edge="1" parent="1" source="DK7Z-vyXW3vnFTn4phnp-7" target="k6WkVf92p5_3MgV4niu0-11">
          <mxGeometry relative="1" as="geometry" />
        </mxCell>
      </root>
    </mxGraphModel>
  </diagram>
</mxfile>
